<?xml version="1.0" encoding="UTF-8" standalone="no"?>
<svg
   xmlns:dc="http://purl.org/dc/elements/1.1/"
   xmlns:cc="http://creativecommons.org/ns#"
   xmlns:rdf="http://www.w3.org/1999/02/22-rdf-syntax-ns#"
   xmlns:svg="http://www.w3.org/2000/svg"
   xmlns="http://www.w3.org/2000/svg"
   xmlns:xlink="http://www.w3.org/1999/xlink"
   xmlns:sodipodi="http://sodipodi.sourceforge.net/DTD/sodipodi-0.dtd"
   xmlns:inkscape="http://www.inkscape.org/namespaces/inkscape"
   width="508mm"
   height="243.75488mm"
   viewBox="0 0 507.99999 243.75488"
   version="1.1"
   id="svg8"
   inkscape:version="1.0.2 (e86c870879, 2021-01-15)"
   sodipodi:docname="ut-logo.svg">
  <defs
     id="defs2">
    <linearGradient
       inkscape:collect="always"
       id="linearGradient2876">
      <stop
         style="stop-color:#000000;stop-opacity:1;"
         offset="0"
         id="stop2872" />
      <stop
         style="stop-color:#000000;stop-opacity:0;"
         offset="1"
         id="stop2874" />
    </linearGradient>
    <linearGradient
       inkscape:collect="always"
       id="linearGradient924">
      <stop
         style="stop-color:#ffffff;stop-opacity:1"
         offset="0"
         id="stop920" />
      <stop
         style="stop-color:#e6e6e6;stop-opacity:1"
         offset="1"
         id="stop922" />
    </linearGradient>
    <radialGradient
       inkscape:collect="always"
       xlink:href="#linearGradient924"
       id="radialGradient926"
       cx="104.54558"
       cy="110.17278"
       fx="104.54558"
       fy="110.17278"
       r="54.017036"
       gradientTransform="matrix(6.0082545,0,0,4.0127315,-374.13644,-320.21636)"
       gradientUnits="userSpaceOnUse" />
    <linearGradient
       inkscape:collect="always"
       xlink:href="#linearGradient2876"
       id="linearGradient2878"
       x1="64.198586"
       y1="110.11422"
       x2="147.32152"
       y2="110.11422"
       gradientUnits="userSpaceOnUse" />
  </defs>
  <sodipodi:namedview
     id="base"
     pagecolor="#ffffff"
     bordercolor="#666666"
     borderopacity="1.0"
     inkscape:pageopacity="0.0"
     inkscape:pageshadow="2"
     inkscape:zoom="0.24748737"
     inkscape:cx="1106.927"
     inkscape:cy="-34.257627"
     inkscape:document-units="mm"
     inkscape:current-layer="svg8"
     inkscape:document-rotation="0"
     showgrid="false"
     inkscape:pagecheckerboard="true"
     inkscape:window-width="1920"
     inkscape:window-height="1005"
     inkscape:window-x="0"
     inkscape:window-y="0"
     inkscape:window-maximized="1"
     fit-margin-top="0"
     fit-margin-left="0"
     fit-margin-right="0"
     fit-margin-bottom="0" />
  <metadata
     id="metadata5">
    <rdf:RDF>
      <cc:Work
         rdf:about="">
        <dc:format>image/svg+xml</dc:format>
        <dc:type
           rdf:resource="http://purl.org/dc/dcmitype/StillImage" />
        <dc:title></dc:title>
      </cc:Work>
    </rdf:RDF>
  </metadata>
  <rect
     style="fill:url(#radialGradient926);fill-opacity:1;fill-rule:evenodd;stroke-width:0.800139"
     id="rect10"
     width="508"
     height="243.75488"
     x="0"
     y="0"
     inkscape:label="Background" />
  <g
     id="g68"
     inkscape:label="Sign"
     transform="matrix(4.7022198,0,0,4.7022198,-243.30703,-395.92287)"
     style="stroke:none;stroke-opacity:1">
    <path
       id="path52"
       style="color:#000000;font-style:normal;font-variant:normal;font-weight:normal;font-stretch:normal;font-size:medium;line-height:normal;font-family:sans-serif;font-variant-ligatures:normal;font-variant-position:normal;font-variant-caps:normal;font-variant-numeric:normal;font-variant-alternates:normal;font-variant-east-asian:normal;font-feature-settings:normal;font-variation-settings:normal;text-indent:0;text-align:start;text-decoration:none;text-decoration-line:none;text-decoration-style:solid;text-decoration-color:#000000;letter-spacing:normal;word-spacing:normal;text-transform:none;writing-mode:lr-tb;direction:ltr;text-orientation:mixed;dominant-baseline:auto;baseline-shift:baseline;text-anchor:start;white-space:normal;shape-padding:0;shape-margin:0;inline-size:0;clip-rule:nonzero;display:inline;overflow:visible;visibility:visible;opacity:1;isolation:auto;mix-blend-mode:normal;color-interpolation:sRGB;color-interpolation-filters:linearRGB;solid-color:#000000;solid-opacity:1;vector-effect:none;fill:#008000;fill-opacity:1;fill-rule:nonzero;stroke:none;stroke-width:0.0316158;stroke-linecap:butt;stroke-linejoin:miter;stroke-miterlimit:4;stroke-dasharray:none;stroke-dashoffset:0;stroke-opacity:1;color-rendering:auto;image-rendering:auto;shape-rendering:auto;text-rendering:auto;enable-background:accumulate;stop-color:#000000;stop-opacity:1"
       inkscape:label="Hammer"
       sodipodi:type="inkscape:offset"
       inkscape:radius="0.066680707"
       inkscape:original="M 82.615234 99.335938 C 82.27419 99.335724 81.929128 99.339203 81.652344 99.345703 C 81.513952 99.349003 81.393211 99.354305 81.296875 99.359375 C 81.200535 99.364475 81.139329 99.365476 81.076172 99.378906 C 80.535921 99.49388 79.905136 99.754274 79.412109 100.0625 C 79.018433 100.30862 78.750127 100.54048 77.246094 101.93945 L 75.849609 103.23828 C 75.812919 103.27218 75.791153 103.31928 75.789062 103.36914 L 75.785156 103.47266 C 75.785156 103.47266 75.785156 103.47461 75.785156 103.47461 C 75.779056 103.6703 75.906422 103.86875 76.091797 103.92773 C 76.238704 103.97453 76.328177 103.92701 76.591797 103.83594 C 76.855417 103.74484 77.28978 103.5809 78.037109 103.29492 C 79.153441 102.86774 79.710229 102.65526 80.044922 102.54492 C 80.378727 102.43488 80.481713 102.42577 80.748047 102.39648 L 80.814453 102.38867 L 80.816406 102.89844 C 80.817706 103.27628 80.817506 103.47879 80.853516 103.63672 C 80.871526 103.71572 80.906806 103.79492 80.970703 103.85156 C 80.996043 103.87406 81.019032 103.87412 81.044922 103.88672 C 81.047422 103.90562 81.050134 103.91202 81.052734 103.94922 C 81.061934 104.08186 81.067356 104.33045 81.072266 104.75977 C 81.082066 105.61839 81.084288 105.47708 81.085938 108.39844 C 81.087537 111.25232 81.091242 109.99115 81.101562 110.89258 C 81.111842 111.794 81.108261 111.97911 81.175781 112.14258 C 81.42317 112.7414 81.957322 113.11684 82.583984 113.11719 C 82.857781 113.11737 83.104669 113.05248 83.335938 112.92188 C 83.659267 112.73931 83.913218 112.41184 84.041016 112.03125 C 84.061576 111.96995 84.052628 111.96946 84.054688 111.94336 C 84.056787 111.91726 84.058847 111.8857 84.060547 111.8457 C 84.063947 111.7657 84.067313 111.6554 84.070312 111.51172 C 84.076112 111.22435 84.081778 110.80695 84.085938 110.26367 C 84.094238 109.17712 84.098709 110.43973 84.099609 108.36719 C 84.100709 105.86978 84.102908 106.01945 84.111328 105.0625 C 84.115528 104.58402 84.121856 104.26118 84.128906 104.06055 C 84.131806 103.97695 84.135472 103.92631 84.138672 103.88477 C 84.169932 103.86387 84.199256 103.8416 84.228516 103.8125 C 84.284636 103.7569 84.331177 103.65674 84.345703 103.55469 C 84.360233 103.45263 84.363518 103.32468 84.367188 103.10742 C 84.372388 102.80021 84.403804 102.65002 84.402344 102.65234 C 84.401613 102.65334 84.378117 102.6642 84.404297 102.6582 C 84.430427 102.6522 84.495517 102.64673 84.589844 102.64453 L 84.769531 102.64062 L 84.970703 102.84375 L 84.972656 102.84375 C 85.294038 103.16513 85.521309 103.34515 85.769531 103.39844 C 85.845921 103.41484 85.923019 103.41522 86.039062 103.41992 C 86.155107 103.42492 86.292853 103.42773 86.429688 103.42773 C 86.654135 103.42673 86.778031 103.42576 86.880859 103.41016 C 86.983688 103.39476 87.082757 103.33526 87.132812 103.28516 C 87.161753 103.25626 87.211289 103.18866 87.230469 103.11914 C 87.249649 103.04964 87.255849 102.97473 87.261719 102.85547 C 87.273459 102.61695 87.274991 102.20064 87.275391 101.39648 C 87.275611 100.93585 87.270492 100.50971 87.263672 100.19336 C 87.260272 100.03518 87.256573 99.904106 87.251953 99.808594 C 87.249653 99.760834 87.247041 99.722834 87.244141 99.691406 C 87.242641 99.675686 87.240681 99.661464 87.238281 99.646484 C 87.237081 99.638984 87.237075 99.631934 87.234375 99.621094 C 87.232975 99.615694 87.231516 99.609962 87.228516 99.601562 C 87.225516 99.593163 87.211267 99.566956 87.210938 99.566406 C 87.150638 99.464461 87.027833 99.39114 86.894531 99.365234 C 86.76123 99.339334 86.597483 99.334841 86.351562 99.337891 C 86.019126 99.342091 85.824554 99.343589 85.634766 99.417969 C 85.444977 99.492329 85.308195 99.622746 85.082031 99.837891 L 84.771484 100.13281 L 84.587891 100.13281 C 84.430336 100.13281 84.375539 100.10743 84.384766 100.11523 C 84.393966 100.12323 84.375564 100.10443 84.371094 99.970703 C 84.366594 99.834509 84.355343 99.725904 84.314453 99.625 C 84.273563 99.524096 84.186222 99.436898 84.09375 99.394531 C 84.02704 99.363801 84.01908 99.372741 83.988281 99.369141 C 83.957481 99.365541 83.921371 99.362075 83.878906 99.359375 C 83.793966 99.354075 83.683013 99.351076 83.552734 99.347656 C 83.292178 99.340756 82.956279 99.336158 82.615234 99.335938 z M 83.486328 100.25 L 83.503906 100.31445 C 83.554216 100.4951 83.623059 100.61579 83.746094 100.73828 C 83.957063 100.94827 84.217272 101.03782 84.583984 101.04102 C 84.807229 101.04302 84.97089 101.03704 85.134766 100.96094 C 85.298642 100.88464 85.431834 100.76105 85.654297 100.55273 L 85.974609 100.25195 L 86.212891 100.25195 C 86.273581 100.25174 86.322713 100.25187 86.371094 100.25391 C 86.373194 100.31621 86.375153 100.38428 86.376953 100.48047 C 86.381253 100.71597 86.382812 101.04005 86.382812 101.39258 C 86.382717 101.74444 86.381253 102.0675 86.376953 102.30273 C 86.375253 102.39733 86.373194 102.46544 86.371094 102.52734 C 86.345504 102.52809 86.325685 102.5293 86.296875 102.5293 C 86.173988 102.5301 86.025391 102.52332 85.972656 102.51562 C 86.033016 102.52362 85.986848 102.51965 85.923828 102.46875 C 85.860808 102.41815 85.763926 102.33389 85.628906 102.20703 C 85.453047 102.04178 85.358802 101.95069 85.271484 101.88672 C 85.184164 101.82272 85.095572 101.79082 85.013672 101.76953 C 84.859996 101.72963 84.677259 101.72272 84.498047 101.73242 C 84.318835 101.74242 84.156086 101.76198 84.017578 101.83008 C 83.830418 101.92208 83.679068 102.05033 83.587891 102.22656 C 83.496711 102.40279 83.464942 102.61006 83.458984 102.87109 L 83.455078 103.04297 L 82.580078 103.04492 L 81.708984 103.04688 L 81.707031 102.51953 L 81.707031 102.51758 C 81.705731 102.13046 81.708532 101.92837 81.664062 101.76367 C 81.641773 101.68107 81.592792 101.59478 81.519531 101.54492 C 81.446271 101.49502 81.377007 101.48481 81.316406 101.47461 C 81.148801 101.44641 80.92547 101.46465 80.660156 101.49805 C 80.394842 101.53095 80.106976 101.58365 79.880859 101.64648 C 79.811519 101.66578 79.688453 101.70938 79.496094 101.7793 C 79.303734 101.8493 79.058521 101.94145 78.802734 102.03711 C 78.581942 102.11971 78.444429 102.17462 78.236328 102.25391 C 78.326988 102.16991 78.399595 102.10044 78.496094 102.01172 C 78.731147 101.7956 78.972574 101.57598 79.167969 101.40039 C 79.363363 101.2248 79.525571 101.0862 79.556641 101.0625 C 79.969759 100.74735 80.367701 100.54216 80.914062 100.36133 C 81.079361 100.30673 81.137142 100.28538 81.320312 100.27148 C 81.503484 100.25758 81.808413 100.25641 82.410156 100.25391 L 83.486328 100.25 z M 81.976562 103.96289 L 82.580078 103.96289 L 83.185547 103.96289 L 83.1875 108.32617 C 83.18797 110.26923 83.184834 108.99797 83.177734 110.10547 C 83.174234 110.65921 83.169232 111.09384 83.164062 111.39453 C 83.161462 111.54487 83.15915 111.66186 83.15625 111.74219 C 83.15485 111.78239 83.153644 111.81203 83.152344 111.83203 C 83.151044 111.85203 83.1384 111.88863 83.15625 111.83203 C 83.11057 111.97688 82.946611 112.14684 82.814453 112.19336 C 82.640342 112.25456 82.438669 112.23735 82.291016 112.15625 C 82.132132 112.06895 82.073547 111.9952 82.015625 111.80273 C 82.025125 111.83433 82.017125 111.81653 82.015625 111.79883 C 82.014125 111.78123 82.013419 111.75425 82.011719 111.71875 C 82.008419 111.64775 82.004953 111.54318 82.001953 111.4082 C 81.996053 111.13825 81.992151 110.74172 81.988281 110.21484 C 81.980581 109.16108 81.976543 110.44031 81.976562 108.29883 L 81.976562 103.96289 z "
       d="m 82.615234,99.269531 c -0.341525,-2.14e-4 -0.687317,0.0032 -0.964843,0.0098 -0.13917,0.0033 -0.260603,0.0086 -0.357422,0.01367 -0.09531,0.005 -0.159398,0.0064 -0.230469,0.02148 -0.549964,0.117041 -1.185156,0.378577 -1.685547,0.691407 -0.39809,0.24888 -0.671543,0.4856 -2.175781,1.88476 l -1.396484,1.29883 c -0.04965,0.0459 -0.0792,0.11028 -0.08203,0.17774 l -0.0039,0.10351 a 0.06668737,0.06668737 0 0 0 0,0.002 v 0.002 c -0.0062,0.22531 0.136,0.44837 0.353516,0.51758 0.0834,0.0266 0.158884,0.0251 0.240234,0.006 0.08135,-0.0192 0.170154,-0.0545 0.300781,-0.0996 0.26559,-0.0918 0.699827,-0.255 1.447266,-0.54102 1.116313,-0.42717 1.674457,-0.64074 2.005859,-0.75 0.326874,-0.10775 0.422459,-0.11414 0.681641,-0.14258 l 0.002,0.4336 c 0.0013,0.37773 2.94e-4,0.58388 0.03906,0.7539 0.02006,0.088 0.05885,0.18098 0.136719,0.25 0.02626,0.0233 0.04113,0.0238 0.05859,0.0293 8.28e-4,0.006 0.0011,0.009 0.002,0.0215 0.0089,0.12871 0.01462,0.37759 0.01953,0.80665 0.0098,0.85881 0.01202,0.71734 0.01367,3.63867 0.0016,2.85395 0.0053,1.5936 0.01563,2.49414 0.01028,0.90114 0.0035,1.09473 0.07813,1.27539 0.256567,0.62103 0.81743,1.01526 1.470703,1.01562 0.284359,1.9e-4 0.544429,-0.0672 0.785157,-0.20312 0.340038,-0.19201 0.601765,-0.53282 0.734375,-0.92774 0.02245,-0.0669 0.01672,-0.0926 0.01758,-0.10351 0.0022,-0.0269 0.0041,-0.0608 0.0059,-0.10156 0.0034,-0.0807 0.0068,-0.18998 0.0098,-0.33399 0.0058,-0.28779 0.01146,-0.70652 0.01563,-1.25 0.0083,-1.08597 0.01277,0.17617 0.01367,-1.89648 0.0011,-2.49737 0.0033,-2.34758 0.01172,-3.30469 0.0042,-0.47816 0.01057,-0.80048 0.01758,-1 0.0024,-0.0694 0.0051,-0.10718 0.0078,-0.14453 0.0243,-0.0177 0.04825,-0.0347 0.07227,-0.0586 0.07147,-0.0708 0.12025,-0.17923 0.136718,-0.29493 0.01543,-0.10837 0.01781,-0.23759 0.02148,-0.45507 0.0026,-0.15152 0.01143,-0.26421 0.01953,-0.3379 0.0025,-0.0228 0.0057,-0.0353 0.0078,-0.0508 0.0279,-0.003 0.06043,-0.008 0.130859,-0.01 l 0.150391,-0.004 0.18164,0.18359 a 0.06668737,0.06668737 0 0 0 0.002,0 0.06668737,0.06668737 0 0 0 0.01563,0.0137 c 0.314897,0.31327 0.549081,0.50162 0.814453,0.55859 0.08519,0.0183 0.166255,0.0188 0.28125,0.0234 0.117239,0.005 0.254831,0.008 0.392579,0.008 0.224529,-0.001 0.350661,-8.5e-4 0.460937,-0.0176 0.121505,-0.0182 0.226572,-0.082 0.289063,-0.14453 0.03881,-0.0388 0.09117,-0.1081 0.115234,-0.19531 0.02147,-0.0778 0.02729,-0.15715 0.0332,-0.27734 0.01191,-0.24205 0.01327,-0.65866 0.01367,-1.4629 2.2e-4,-0.46114 -0.0049,-0.88815 -0.01172,-1.20507 -0.0034,-0.15843 -0.007,-0.289986 -0.01172,-0.386722 -0.0023,-0.04849 -0.0048,-0.08646 -0.0078,-0.119141 -0.0017,-0.0174 -0.0033,-0.03294 -0.0059,-0.04883 -1.76e-4,-0.0011 -0.0015,-0.01385 -0.0059,-0.03125 a 0.06668737,0.06668737 0 0 0 0,-0.002 c -0.0013,-0.0052 -0.0039,-0.01244 -0.0078,-0.02344 -0.0054,-0.015 -0.0093,-0.02092 -0.01367,-0.0293 -0.004,-0.0077 -0.0089,-0.01603 -0.0098,-0.01758 v -0.002 c -0.07355,-0.123351 -0.21095,-0.203577 -0.359375,-0.232422 -0.14192,-0.02757 -0.30954,-0.03041 -0.556641,-0.02734 -0.332307,0.0042 -0.536314,0.0041 -0.740234,0.08398 -0.204314,0.08005 -0.35003,0.21847 -0.576172,0.433593 l -0.291015,0.277348 h -0.15625 c -0.06945,0 -0.111033,-0.007 -0.140625,-0.0117 -0.003,-0.0197 -0.0082,-0.0382 -0.0098,-0.08594 -0.0046,-0.138691 -0.015,-0.256747 -0.06055,-0.369141 -0.04828,-0.119142 -0.146344,-0.215449 -0.255859,-0.265625 -0.073,-0.03363 -0.108161,-0.02928 -0.125,-0.03125 -0.03187,-0.0037 -0.0696,-0.007 -0.113282,-0.0098 -0.08698,-0.0054 -0.197816,-0.0083 -0.328124,-0.01172 -0.261289,-0.0069 -0.597838,-0.0115 -0.939454,-0.01172 z m 0.820313,1.046879 0.0039,0.0156 c 0.05247,0.1884 0.130024,0.32396 0.259766,0.45313 0.223681,0.22264 0.507474,0.31897 0.884765,0.32226 0.224728,0.002 0.400078,-0.003 0.578125,-0.0859 0.176321,-0.0821 0.314559,-0.21151 0.53711,-0.41992 l 0.302734,-0.2832 h 0.210938 c 0.03629,-1.3e-4 0.06403,0.002 0.09375,0.002 0.0014,0.048 0.0026,0.0935 0.0039,0.16211 0.0043,0.23468 0.0059,0.55782 0.0059,0.91016 -9.5e-5,0.35168 -0.0016,0.67381 -0.0059,0.9082 -0.0012,0.068 -0.0024,0.11404 -0.0039,0.16211 -0.0034,4e-5 -0.0061,0 -0.0098,0 -0.105907,6.9e-4 -0.219855,-0.006 -0.277344,-0.0117 -0.01382,-0.007 -0.03125,-0.0162 -0.05469,-0.0352 -0.06086,-0.0489 -0.156858,-0.13177 -0.291016,-0.25782 -0.175611,-0.16501 -0.270072,-0.25788 -0.363281,-0.32617 -0.09614,-0.0705 -0.193032,-0.10453 -0.279297,-0.12695 -0.164309,-0.0427 -0.353748,-0.049 -0.537109,-0.0391 -0.1818,0.0101 -0.353329,0.0285 -0.50586,0.10351 -0.196405,0.0965 -0.360035,0.23453 -0.458984,0.42578 -0.09808,0.18957 -0.130656,0.4082 -0.136719,0.67383 l -0.002,0.10742 -0.810547,0.002 -0.804687,0.002 -0.002,-0.46094 v -0.002 c -0.0013,-0.38672 0.0033,-0.59285 -0.04492,-0.77149 -0.02565,-0.095 -0.08046,-0.19364 -0.171875,-0.25586 -0.08593,-0.0585 -0.168934,-0.072 -0.228516,-0.082 -0.181802,-0.0306 -0.408851,-0.0102 -0.675781,0.0234 -0.268099,0.0332 -0.558147,0.0862 -0.789063,0.15039 -0.0747,0.0208 -0.198048,0.0648 -0.390625,0.13477 -0.192919,0.0702 -0.437636,0.16217 -0.693359,0.25781 -0.09704,0.0363 -0.170207,0.0657 -0.248047,0.0957 0.0037,-0.003 0.006,-0.006 0.0098,-0.01 0.234875,-0.21596 0.476729,-0.43597 0.671875,-0.61133 0.194723,-0.17499 0.364388,-0.31844 0.384765,-0.33399 0.407798,-0.31109 0.796645,-0.51226 1.337891,-0.6914 0.16582,-0.0548 0.211537,-0.0724 0.390625,-0.0859 0.177886,-0.0135 0.482234,-0.0151 1.083984,-0.0176 z m -1.392578,3.71289 h 0.537109 0.539063 l 0.002,4.29687 c 4.7e-4,1.943 -0.0027,0.67135 -0.0098,1.7793 -0.0035,0.55356 -0.0085,0.98678 -0.01367,1.28711 -0.0026,0.15025 -0.0049,0.26838 -0.0078,0.34765 -0.0013,0.0365 -0.0028,0.0615 -0.0039,0.0801 -0.01977,0.0565 -0.06189,0.12551 -0.117188,0.1836 -0.05777,0.0607 -0.125546,0.10927 -0.175781,0.12695 -0.155224,0.0546 -0.342018,0.0375 -0.470703,-0.0332 -0.149513,-0.0821 -0.18547,-0.13014 -0.240235,-0.31055 -0.001,-0.0145 -0.0023,-0.0387 -0.0039,-0.0723 -0.0033,-0.0701 -0.0068,-0.17399 -0.0098,-0.30859 -0.0059,-0.26917 -0.0098,-0.66461 -0.01367,-1.19141 -0.0077,-1.05432 -0.01174,0.22538 -0.01172,-1.91601 z"
       transform="translate(0.4140504,3.8917496)" />
    <text
       xml:space="preserve"
       style="font-style:normal;font-variant:normal;font-weight:900;font-stretch:normal;font-size:15.536px;line-height:1.25;font-family:Nunito;-inkscape-font-specification:'Nunito weight=255';fill:#008000;fill-opacity:1;stroke:none;stroke-width:0.388403;stroke-opacity:1"
       x="63.021194"
       y="116.81026"
       id="text14"
       inkscape:label="Text"><tspan
         sodipodi:role="line"
         id="tspan12"
         x="63.021194"
         y="116.81026"
         style="font-style:normal;font-variant:normal;font-weight:bold;font-stretch:normal;font-size:19.0499px;font-family:Nunito;-inkscape-font-specification:'Nunito Bold';fill:#008000;stroke:none;stroke-width:0.388403;stroke-opacity:1">U  oolbox</tspan></text>
  </g>
</svg>
