<?xml version="1.0" encoding="UTF-8" standalone="no"?>
<svg
   xmlns:dc="http://purl.org/dc/elements/1.1/"
   xmlns:cc="http://creativecommons.org/ns#"
   xmlns:rdf="http://www.w3.org/1999/02/22-rdf-syntax-ns#"
   xmlns:svg="http://www.w3.org/2000/svg"
   xmlns="http://www.w3.org/2000/svg"
   xmlns:xlink="http://www.w3.org/1999/xlink"
   xmlns:sodipodi="http://sodipodi.sourceforge.net/DTD/sodipodi-0.dtd"
   xmlns:inkscape="http://www.inkscape.org/namespaces/inkscape"
   width="508mm"
   height="243.75488mm"
   viewBox="0 0 507.99999 243.75488"
   version="1.1"
   id="svg8"
   inkscape:version="1.0.2 (e86c870879, 2021-01-15)"
   sodipodi:docname="ut-logo.svg">
  <defs
     id="defs2">
    <linearGradient
       inkscape:collect="always"
       id="linearGradient2876">
      <stop
         style="stop-color:#000000;stop-opacity:1;"
         offset="0"
         id="stop2872" />
      <stop
         style="stop-color:#000000;stop-opacity:0;"
         offset="1"
         id="stop2874" />
    </linearGradient>
    <linearGradient
       inkscape:collect="always"
       id="linearGradient924">
      <stop
         style="stop-color:#ffffff;stop-opacity:1"
         offset="0"
         id="stop920" />
      <stop
         style="stop-color:#e6e6e6;stop-opacity:1"
         offset="1"
         id="stop922" />
    </linearGradient>
    <radialGradient
       inkscape:collect="always"
       xlink:href="#linearGradient924"
       id="radialGradient926"
       cx="104.54558"
       cy="110.17278"
       fx="104.54558"
       fy="110.17278"
       r="54.017036"
       gradientTransform="matrix(6.0082545,0,0,4.0127315,-374.13644,-320.21636)"
       gradientUnits="userSpaceOnUse" />
    <linearGradient
       inkscape:collect="always"
       xlink:href="#linearGradient2876"
       id="linearGradient2878"
       x1="64.198586"
       y1="110.11422"
       x2="147.32152"
       y2="110.11422"
       gradientUnits="userSpaceOnUse" />
  </defs>
  <sodipodi:namedview
     id="base"
     pagecolor="#ffffff"
     bordercolor="#666666"
     borderopacity="1.0"
     inkscape:pageopacity="0.0"
     inkscape:pageshadow="2"
     inkscape:zoom="1.4"
     inkscape:cx="535.87172"
     inkscape:cy="419.52993"
     inkscape:document-units="mm"
     inkscape:current-layer="g68"
     inkscape:document-rotation="0"
     showgrid="false"
     inkscape:pagecheckerboard="true"
     inkscape:window-width="1920"
     inkscape:window-height="1005"
     inkscape:window-x="0"
     inkscape:window-y="0"
     inkscape:window-maximized="1"
     fit-margin-top="0"
     fit-margin-left="0"
     fit-margin-right="0"
     fit-margin-bottom="0" />
  <metadata
     id="metadata5">
    <rdf:RDF>
      <cc:Work
         rdf:about="">
        <dc:format>image/svg+xml</dc:format>
        <dc:type
           rdf:resource="http://purl.org/dc/dcmitype/StillImage" />
        <dc:title />
      </cc:Work>
    </rdf:RDF>
  </metadata>
  <rect
     style="fill:url(#radialGradient926);fill-opacity:1;fill-rule:evenodd;stroke-width:0.800139"
     id="rect10"
     width="508"
     height="243.75488"
     x="0"
     y="0"
     inkscape:label="Background" />
  <g
     id="g68"
     inkscape:label="Sign"
     transform="matrix(4.7022198,0,0,4.7022198,-243.30703,-395.92287)"
     style="stroke:none;stroke-opacity:1">
    <path
       id="path52"
       style="color:#000000;font-style:normal;font-variant:normal;font-weight:normal;font-stretch:normal;font-size:medium;line-height:normal;font-family:sans-serif;font-variant-ligatures:normal;font-variant-position:normal;font-variant-caps:normal;font-variant-numeric:normal;font-variant-alternates:normal;font-variant-east-asian:normal;font-feature-settings:normal;font-variation-settings:normal;text-indent:0;text-align:start;text-decoration:none;text-decoration-line:none;text-decoration-style:solid;text-decoration-color:#000000;letter-spacing:normal;word-spacing:normal;text-transform:none;writing-mode:lr-tb;direction:ltr;text-orientation:mixed;dominant-baseline:auto;baseline-shift:baseline;text-anchor:start;white-space:normal;shape-padding:0;shape-margin:0;inline-size:0;clip-rule:nonzero;display:inline;overflow:visible;visibility:visible;opacity:1;isolation:auto;mix-blend-mode:normal;color-interpolation:sRGB;color-interpolation-filters:linearRGB;solid-color:#000000;solid-opacity:1;vector-effect:none;fill:#008000;fill-opacity:1;fill-rule:nonzero;stroke:none;stroke-width:0.0316158;stroke-linecap:butt;stroke-linejoin:miter;stroke-miterlimit:4;stroke-dasharray:none;stroke-dashoffset:0;stroke-opacity:1;color-rendering:auto;image-rendering:auto;shape-rendering:auto;text-rendering:auto;enable-background:accumulate;stop-color:#000000;stop-opacity:1"
       inkscape:label="Hammer"
       transform="translate(0.4140504,3.8917496)"
       d="m 82.615234,99.269531 c -0.341525,-2.14e-4 -0.687317,0.0032 -0.964843,0.0098 -0.13917,0.0033 -0.260603,0.0086 -0.357422,0.01367 -0.09531,0.005 -0.159398,0.0064 -0.230469,0.02148 -0.549964,0.117041 -1.185156,0.378577 -1.685547,0.691409 -0.39809,0.24888 -0.671543,0.4856 -2.175781,1.88476 l -1.396484,1.29883 c -0.04965,0.0459 -0.0792,0.11028 -0.08203,0.17774 l -0.0039,0.10351 c -10e-6,6.7e-4 -10e-6,10e-4 0,0.002 v 0.002 c -0.0062,0.22531 0.136,0.44837 0.353516,0.51758 0.0834,0.0266 0.158884,0.0251 0.240234,0.006 0.08135,-0.0192 0.170154,-0.0545 0.300781,-0.0996 0.26559,-0.0918 0.699827,-0.255 1.447266,-0.54102 1.116313,-0.42717 1.674457,-0.64074 2.005859,-0.75 0.326874,-0.10775 0.422459,-0.11414 0.681641,-0.14258 l 0.002,0.4336 c 0.0013,0.37773 2.94e-4,0.58388 0.03906,0.7539 0.02006,0.088 0.05885,0.18098 0.136719,0.25 0.02626,0.0233 0.04113,0.0238 0.05859,0.0293 8.28e-4,0.006 0.0011,0.009 0.002,0.0215 0.0089,0.12871 0.01462,0.37759 0.01953,0.80665 0.0098,0.85881 0.01202,0.71734 0.01367,3.63867 0.0016,2.85395 0.0053,1.5936 0.01563,2.49414 0.01028,0.90114 0.0035,1.09473 0.07813,1.27539 0.256567,0.62103 0.81743,1.01526 1.470703,1.01562 0.284359,1.9e-4 0.544429,-0.0672 0.785157,-0.20312 0.340038,-0.19201 0.601765,-0.53282 0.734375,-0.92774 0.02245,-0.0669 0.01672,-0.0926 0.01758,-0.10351 0.0022,-0.0269 0.0041,-0.0608 0.0059,-0.10156 0.0034,-0.0807 0.02145,-0.18998 0.02445,-0.33399 0.0058,-0.28779 -0.0042,-0.70652 0,-1.25 0.0083,-1.08597 -9e-4,0.17617 0,-1.89648 0.0011,-2.49737 0.01795,-2.34758 0.02637,-3.30469 0.0042,-0.47816 0.01057,-0.80048 0.01758,-1 0.0024,-0.0694 0.0051,-0.10718 0.0078,-0.14453 0.0243,-0.0177 0.04825,-0.0347 0.07227,-0.0586 0.07147,-0.0708 0.12025,-0.17923 0.136718,-0.29493 0.01543,-0.10837 0.01781,-0.23759 0.02148,-0.45507 0.0026,-0.15152 0.01143,-0.26421 0.01953,-0.3379 0.0025,-0.0228 0.0057,-0.0353 0.0078,-0.0508 0.0279,-0.003 0.06043,-0.008 0.130859,-0.01 l 0.150391,-0.004 0.18164,0.18359 c 6.67e-4,10e-6 0.0013,10e-6 0.002,0 0.0045,0.005 0.0097,0.01 0.01563,0.0137 0.314897,0.31327 0.549081,0.50162 0.814453,0.55859 0.08519,0.0183 0.166255,0.0188 0.28125,0.0234 0.117239,0.005 0.254831,0.008 0.392579,0.008 0.224529,-0.001 0.350661,-8.5e-4 0.460937,-0.0176 0.121505,-0.0182 0.226572,-0.082 0.289063,-0.14453 0.03881,-0.0388 0.09117,-0.1081 0.115234,-0.19531 0.02147,-0.0778 0.02729,-0.15715 0.0332,-0.27734 0.01191,-0.24205 0.01327,-0.65866 0.01367,-1.4629 2.2e-4,-0.46114 -0.0049,-0.88815 -0.01172,-1.20507 -0.0034,-0.15843 -0.007,-0.289988 -0.01172,-0.386724 -0.0023,-0.04849 -0.0048,-0.08646 -0.0078,-0.119141 -0.0017,-0.0174 -0.0033,-0.03294 -0.0059,-0.04883 -1.76e-4,-0.0011 -0.0015,-0.01385 -0.0059,-0.03125 1e-5,-6.67e-4 1e-5,-0.0013 0,-0.002 -0.0013,-0.0052 -0.0039,-0.01244 -0.0078,-0.02344 -0.0054,-0.015 -0.0093,-0.02092 -0.01367,-0.0293 -0.004,-0.0077 -0.0089,-0.01603 -0.0098,-0.01758 v -0.002 c -0.07355,-0.123351 -0.21095,-0.203577 -0.359375,-0.232422 -0.14192,-0.02757 -0.30954,-0.03041 -0.556641,-0.02734 -0.332307,0.0042 -0.536314,0.0041 -0.740234,0.08398 -0.204314,0.08005 -0.35003,0.21847 -0.576172,0.433593 l -0.291015,0.277344 h -0.15625 c -0.06945,0 -0.111033,-0.007 -0.140625,-0.0117 -0.003,-0.0197 -0.0082,-0.0382 -0.0098,-0.08594 -0.0046,-0.138691 -0.015,-0.256747 -0.06055,-0.369141 -0.04828,-0.119142 -0.146344,-0.215449 -0.255859,-0.265625 -0.073,-0.03363 -0.108161,-0.02928 -0.125,-0.03125 -0.03187,-0.0037 -0.0696,-0.007 -0.113282,-0.0098 -0.08698,-0.0054 -0.197816,-0.0083 -0.328124,-0.01172 -0.261289,-0.0069 -0.597838,-0.0115 -0.939454,-0.01172 z m 0.820313,1.046879 0.0039,0.0156 c 0.05247,0.1884 0.130024,0.32396 0.259766,0.45313 0.223681,0.22264 0.507474,0.31897 0.884765,0.32226 0.224728,0.002 0.400078,-0.003 0.578125,-0.0859 0.176321,-0.0821 0.314559,-0.21151 0.53711,-0.41992 l 0.302734,-0.2832 h 0.210938 c 0.03629,-1.3e-4 0.06403,0.002 0.09375,0.002 0.0014,0.048 0.0026,0.0935 0.0039,0.16211 0.0043,0.23468 0.0059,0.55782 0.0059,0.91016 -9.5e-5,0.35168 -0.0016,0.67381 -0.0059,0.9082 -0.0012,0.068 -0.0024,0.11404 -0.0039,0.16211 -0.0034,4e-5 -0.0061,0 -0.0098,0 -0.105907,6.9e-4 -0.219855,-0.006 -0.277344,-0.0117 -0.01382,-0.007 -0.03125,-0.0162 -0.05469,-0.0352 -0.06086,-0.0489 -0.156858,-0.13177 -0.291016,-0.25782 -0.175611,-0.16501 -0.270072,-0.25788 -0.363281,-0.32617 -0.09614,-0.0705 -0.193032,-0.10453 -0.279297,-0.12695 -0.164309,-0.0427 -0.353748,-0.049 -0.537109,-0.0391 -0.1818,0.0101 -0.353329,0.0285 -0.50586,0.10351 -0.196405,0.0965 -0.360035,0.23453 -0.458984,0.42578 -0.09808,0.18957 -0.130656,0.4082 -0.136719,0.67383 l -0.002,0.10742 -0.810547,0.002 -0.804687,0.002 -0.002,-0.46094 v -0.002 c -0.0013,-0.38672 0.0033,-0.59285 -0.04492,-0.77149 -0.02565,-0.095 -0.08046,-0.19364 -0.171875,-0.25586 -0.08593,-0.0585 -0.168934,-0.072 -0.228516,-0.082 -0.181802,-0.0306 -0.408851,-0.0102 -0.675781,0.0234 -0.268099,0.0332 -0.558147,0.0862 -0.789063,0.15039 -0.0747,0.0208 -0.198048,0.0648 -0.390625,0.13477 -0.192919,0.0702 -0.437636,0.16217 -0.693359,0.25781 -0.09704,0.0363 -0.170207,0.0657 -0.248047,0.0957 0.0037,-0.003 0.006,-0.006 0.0098,-0.01 0.234875,-0.21596 0.476729,-0.43597 0.671875,-0.61133 0.194723,-0.17499 0.364388,-0.31844 0.384765,-0.33399 0.407798,-0.31109 0.796645,-0.51226 1.337891,-0.6914 0.16582,-0.0548 0.211537,-0.0724 0.390625,-0.0859 0.177886,-0.0135 0.482234,-0.0151 1.083984,-0.0176 z m -1.392578,3.71289 h 0.537109 0.539063 l 0.002,4.29687 c 4.7e-4,1.943 -0.0027,0.67135 -0.0098,1.7793 -0.0035,0.55356 -0.0085,0.98678 -0.01367,1.28711 -0.0026,0.15025 -0.0049,0.26838 -0.0078,0.34765 -0.0013,0.0365 -0.0028,0.0615 -0.0039,0.0801 -0.01977,0.0565 -0.06189,0.12551 -0.117188,0.1836 -0.05777,0.0607 -0.125546,0.10927 -0.175781,0.12695 -0.155224,0.0546 -0.342018,0.0375 -0.470703,-0.0332 -0.149513,-0.0821 -0.18547,-0.13014 -0.240235,-0.31055 -0.001,-0.0145 -0.0023,-0.0387 -0.0039,-0.0723 -0.0033,-0.0701 -0.0068,-0.17399 -0.0098,-0.30859 -0.0059,-0.26917 -0.0098,-0.66461 -0.01367,-1.19141 -0.0077,-1.05432 -0.01174,0.22538 -0.01172,-1.91601 z"
       sodipodi:nodetypes="ccccscccccccccscccscccccccccccccccscccscscccccccccccssccccscccccccccccsccsccccccccccscccccccccccccsccscccccsscccccsccccccccccccccccccccccccc" />
    <text
       xml:space="preserve"
       style="font-style:normal;font-variant:normal;font-weight:900;font-stretch:normal;font-size:15.536px;line-height:1.25;font-family:Nunito;-inkscape-font-specification:'Nunito weight=255';fill:#008000;fill-opacity:1;stroke:none;stroke-width:0.388403;stroke-opacity:1"
       x="63.021194"
       y="116.81026"
       id="text14"
       inkscape:label="Text"><tspan
         sodipodi:role="line"
         id="tspan12"
         x="63.021194"
         y="116.81026"
         style="font-style:normal;font-variant:normal;font-weight:bold;font-stretch:normal;font-size:19.0499px;font-family:Nunito;-inkscape-font-specification:'Nunito Bold';fill:#008000;stroke:none;stroke-width:0.388403;stroke-opacity:1">U  oolbox</tspan></text>
  </g>
</svg>
